<svg width="557" height="284" viewBox="0 0 557 284" fill="none" xmlns="http://www.w3.org/2000/svg">
<path d="M557 282.741H0.427246V283.888H557V282.741Z" fill="#CCCCCC"/>
<path d="M557 212.739H0.427246V213.886H557V212.739Z" fill="#CCCCCC"/>
<path d="M557 141.589H0.427246V142.737H557V141.589Z" fill="#CCCCCC"/>
<path d="M557 71.5874H0.427246V72.735H557V71.5874Z" fill="#CCCCCC"/>
<path d="M557 0.437988H0.427246V1.58556H557V0.437988Z" fill="#CCCCCC"/>
<path d="M557 247.166H0.427246V248.314H557V247.166Z" fill="#EBEBEB"/>
<path d="M557 177.164H0.427246V178.312H557V177.164Z" fill="#EBEBEB"/>
<path d="M557 106.015H0.427246V107.162H557V106.015Z" fill="#EBEBEB"/>
<path d="M557 36.0127H0.427246V37.1603H557V36.0127Z" fill="#EBEBEB"/>
<path d="M91.0853 282.74V244.871C91.0853 225.857 75.6718 210.443 56.6581 210.443C37.6445 210.443 22.231 225.857 22.231 244.871V282.74H91.0853Z" fill="#8DC8E8"/>
<path d="M202.4 282.74V139.294C202.4 120.28 186.986 104.867 167.973 104.867C148.959 104.867 133.546 120.28 133.546 139.294V282.74H202.4Z" fill="#154D83"/>
<path d="M312.567 282.741V81.3417C312.567 62.645 297.41 47.4883 278.714 47.4883C260.017 47.4883 244.86 62.645 244.86 81.3417V282.741H312.567Z" fill="#154D83"/>
<path d="M423.881 282.741V233.395C423.881 214.381 408.468 198.968 389.454 198.968C370.441 198.968 355.027 214.381 355.027 233.395V282.741H423.881Z" fill="#8DC8E8"/>
<path d="M535.196 282.741V242.576C535.196 223.562 519.783 208.148 500.769 208.148C481.755 208.148 466.342 223.562 466.342 242.576V282.741H535.196Z" fill="#8DC8E8"/>
<path d="M557 282.741H0.427246V283.888H557V282.741Z" fill="#333333"/>
</svg>
