<svg width="579" height="310" viewBox="0 0 579 310" fill="none" xmlns="http://www.w3.org/2000/svg">
<path d="M578.143 308.528H0.761963V309.781H578.143V308.528Z" fill="#CCCCCC"/>
<path d="M578.143 232.131H0.761963V233.384H578.143V232.131Z" fill="#CCCCCC"/>
<path d="M578.143 154.482H0.761963V155.734H578.143V154.482Z" fill="#CCCCCC"/>
<path d="M578.143 78.0849H0.761963V79.3373H578.143V78.0849Z" fill="#CCCCCC"/>
<path d="M578.143 0.435532H0.761963V1.68794H578.143V0.435532Z" fill="#CCCCCC"/>
<path d="M578.143 269.704H0.761963V270.956H578.143V269.704Z" fill="#EBEBEB"/>
<path d="M578.143 193.307H0.761963V194.559H578.143V193.307Z" fill="#EBEBEB"/>
<path d="M578.143 115.657H0.761963V116.91H578.143V115.657Z" fill="#EBEBEB"/>
<path d="M578.143 39.2602H0.761963V40.5126H578.143V39.2602Z" fill="#EBEBEB"/>
<path d="M19.8097 69.3181H10.2859V232.131H19.8097V69.3181Z" fill="#A3A8B9"/>
<path d="M67.4288 91.8614H59.0955V232.131H67.4288V91.8614Z" fill="#A3A8B9"/>
<path d="M116.238 86.8518H106.715V232.131H116.238V86.8518Z" fill="#A3A8B9"/>
<path d="M163.858 79.3373H154.334V232.131H163.858V79.3373Z" fill="#A3A8B9"/>
<path d="M211.476 65.5608H203.143V232.131H211.476V65.5608Z" fill="#A3A8B9"/>
<path d="M260.286 69.3181H250.762V232.131H260.286V69.3181Z" fill="#A3A8B9"/>
<path d="M307.905 61.8036H298.381V232.131H307.905V61.8036Z" fill="#A3A8B9"/>
<path d="M355.524 60.5512H347.191V232.131H355.524V60.5512Z" fill="#A3A8B9"/>
<path d="M404.334 59.2988H394.81V232.131H404.334V59.2988Z" fill="#A3A8B9"/>
<path d="M451.953 55.5415H442.429V232.131H451.953V55.5415Z" fill="#A3A8B9"/>
<path d="M499.572 58.0464H491.239V232.131H499.572V58.0464Z" fill="#A3A8B9"/>
<path d="M548.382 80.5897H538.858V232.131H548.382V80.5897Z" fill="#A3A8B9"/>
<path d="M29.3336 81.8421H21.0002V232.131H29.3336V81.8421Z" fill="#3366CC"/>
<path d="M78.1432 84.347H68.6194V232.131H78.1432V84.347Z" fill="#3366CC"/>
<path d="M125.762 48.0271H117.429V232.131H125.762V48.0271Z" fill="#3366CC"/>
<path d="M173.381 56.794H165.048V232.131H173.381V56.794Z" fill="#3366CC"/>
<path d="M222.191 41.765H212.667V232.131H222.191V41.765Z" fill="#3366CC"/>
<path d="M269.81 41.765H261.477V232.131H269.81V41.765Z" fill="#3366CC"/>
<path d="M317.429 17.9693H309.096V232.131H317.429V17.9693Z" fill="#3366CC"/>
<path d="M366.239 12.9596H356.715V232.131H366.239V12.9596Z" fill="#3366CC"/>
<path d="M413.858 26.7361H405.524V232.131H413.858V26.7361Z" fill="#3366CC"/>
<path d="M461.477 34.2506H453.144V232.131H461.477V34.2506Z" fill="#3366CC"/>
<path d="M510.286 48.0271H500.762V232.131H510.286V48.0271Z" fill="#3366CC"/>
<path d="M557.905 51.7843H549.572V232.131H557.905V51.7843Z" fill="#3366CC"/>
<path d="M40.0477 232.132H30.5239V232.758H40.0477V232.132Z" fill="#FF9900"/>
<path d="M87.6668 232.131H79.3335V232.757H87.6668V232.131Z" fill="#FF9900"/>
<path d="M136.476 232.128H126.953V232.754H136.476V232.128Z" fill="#FF9900"/>
<path d="M184.096 232.129H174.572V232.756H184.096V232.129Z" fill="#FF9900"/>
<path d="M231.715 232.13H223.381V232.756H231.715V232.13Z" fill="#FF9900"/>
<path d="M280.524 232.129H271V232.755H280.524V232.129Z" fill="#FF9900"/>
<path d="M328.143 232.128H318.619V232.754H328.143V232.128Z" fill="#FF9900"/>
<path d="M375.762 232.128H367.429V232.754H375.762V232.128Z" fill="#FF9900"/>
<path d="M424.572 232.129H415.048V232.755H424.572V232.129Z" fill="#FF9900"/>
<path d="M472.191 232.13H462.667V232.756H472.191V232.13Z" fill="#FF9900"/>
<path d="M519.81 232.131H511.477V232.757H519.81V232.131Z" fill="#FF9900"/>
<path d="M568.62 232.129H559.096V232.755H568.62V232.129Z" fill="#FF9900"/>
<path d="M578.143 232.131H0.761963V233.384H578.143V232.131Z" fill="#333333"/>
</svg>
