<svg width="178" height="27" viewBox="0 0 178 27" fill="none" xmlns="http://www.w3.org/2000/svg">
<path d="M22.0867 17.3587V26.1169H18.9762V20.0895H2.51791V17.3587H10.9002V13.6685H0.944336V10.9377H23.9358V13.6685H13.98V17.3587H22.0806H22.0867ZM22.0867 1.44141V8.93263H18.9762V4.20295H2.79957V1.44141H22.0867Z" fill="#575756"/>
<path d="M28.0565 14.5669V1.6694H40.9268V14.5669H28.0565ZM28.7851 25.5515V17.1562H31.8711V22.79H49.2846V25.5515H28.7913H28.7851ZM37.8715 4.37559H31.1425V11.8976H37.8715V4.37559ZM45.9415 17.0209V0.9375H49.0519V17.0209H45.9415Z" fill="#575756"/>
<path d="M62.9325 15.022V18.54H59.8465V15.022H53.0317V12.4327H69.7166V15.022H62.9325ZM63.8325 11.1349V4.37559H54.5808V1.61405H66.9429V11.1349H63.8325ZM57.7219 17.2177V22.8515H75.5823V25.5577H54.6114V17.2238H57.7219V17.2177ZM71.8229 10.2308H68.1798V7.66607H71.8229V0.9375H74.9088V18.823H71.8229V10.2308Z" fill="#575756"/>
<path d="M92.2735 7.64147C92.2735 8.50868 92.0959 9.31439 91.7408 10.077C91.3856 10.8397 90.9081 11.4916 90.3141 12.0329C89.7141 12.6172 89.0222 13.0723 88.2262 13.4106C87.4303 13.7489 86.5792 13.9149 85.6607 13.9149C84.7423 13.9149 83.8912 13.7489 83.0953 13.4106C82.2993 13.0723 81.6074 12.611 81.0073 12.0329C80.4073 11.4916 79.9358 10.8335 79.593 10.077C79.244 9.31439 79.0725 8.50253 79.0725 7.64147C79.0725 6.78041 79.244 5.9378 79.593 5.17515C79.9358 4.41249 80.4073 3.7544 81.0073 3.18856C81.6074 2.60427 82.2993 2.14913 83.0953 1.81086C83.8912 1.47259 84.7423 1.30653 85.6607 1.30653C86.5792 1.30653 87.4303 1.47259 88.2262 1.81086C89.0222 2.14913 89.7141 2.61042 90.3141 3.18856C90.9142 3.74825 91.3856 4.41249 91.7408 5.17515C92.0959 5.9378 92.2735 6.75581 92.2735 7.64147ZM80.7196 15.9507H100.711V25.8345H97.6004V18.7369H80.7196V15.9507ZM89.2487 7.64147C89.2487 6.6451 88.8997 5.79634 88.1956 5.09519C87.4976 4.39404 86.6588 4.03732 85.6852 4.03732C84.7117 4.03732 83.8729 4.38789 83.1626 5.09519C82.4523 5.79634 82.0972 6.65125 82.0972 7.64147C82.0972 8.63169 82.4523 9.45585 83.1626 10.1631C83.8729 10.8643 84.7117 11.221 85.6852 11.221C86.6588 11.221 87.4915 10.8705 88.1956 10.1631C88.8997 9.462 89.2487 8.61939 89.2487 7.64147ZM97.6004 0.9375H100.711V14.3147H97.6004V0.9375Z" fill="#575756"/>
<path d="M104.292 18.4539V15.6924H121.032V18.4539H114.022V25.244H110.966V18.4539H104.292ZM119.128 7.75218C119.128 8.61939 118.957 9.43125 118.608 10.2001C118.265 10.9689 117.781 11.6331 117.163 12.1989C116.544 12.7832 115.834 13.2384 115.032 13.5766C114.23 13.9149 113.367 14.081 112.454 14.081C111.542 14.081 110.679 13.9149 109.877 13.5766C109.074 13.2384 108.364 12.7771 107.746 12.1989C107.127 11.6331 106.644 10.9689 106.289 10.2001C105.933 9.43125 105.756 8.61324 105.756 7.75218C105.756 6.89112 105.933 6.07311 106.289 5.30431C106.644 4.5355 107.127 3.85896 107.746 3.27466C108.364 2.69037 109.074 2.23524 109.877 1.89697C110.679 1.55869 111.542 1.39263 112.454 1.39263C113.367 1.39263 114.23 1.55869 115.032 1.89697C115.834 2.23524 116.544 2.69652 117.163 3.27466C117.781 3.85896 118.259 4.5355 118.608 5.30431C118.951 6.07311 119.128 6.89112 119.128 7.75218ZM116.153 7.75218C116.153 6.73736 115.791 5.8763 115.057 5.16285C114.328 4.4494 113.458 4.09267 112.448 4.09267C111.438 4.09267 110.575 4.4494 109.852 5.16285C109.136 5.8763 108.774 6.73736 108.774 7.75218C108.774 8.767 109.136 9.60961 109.852 10.3292C110.575 11.0488 111.438 11.4117 112.448 11.4117C113.458 11.4117 114.328 11.0488 115.057 10.3292C115.785 9.60961 116.153 8.74855 116.153 7.75218ZM122.912 0.9375H125.998V26.062H122.912V0.9375Z" fill="#575756"/>
<path d="M140.264 15.4155V18.7921H137.179V15.4155H130.364V12.8262H147.049V15.4155H140.264ZM135.048 17.6112V22.8514H152.908V25.5576H131.937V17.6174H135.048V17.6112ZM144.495 6.26368C144.495 7.03248 144.33 7.75823 144.006 8.44708C143.675 9.12978 143.24 9.73867 142.701 10.2615C142.163 10.7658 141.526 11.1717 140.797 11.4731C140.069 11.7745 139.291 11.9221 138.47 11.9221C137.65 11.9221 136.872 11.7745 136.144 11.4731C135.415 11.1717 134.772 10.7658 134.209 10.2615C133.688 9.73867 133.26 9.12978 132.935 8.44708C132.605 7.75823 132.446 7.03248 132.446 6.26368C132.446 5.49488 132.611 4.76912 132.935 4.09258C133.26 3.41603 133.688 2.81944 134.209 2.2905C134.772 1.76771 135.415 1.35563 136.144 1.06656C136.872 0.777493 137.65 0.629883 138.47 0.629883C139.291 0.629883 140.069 0.777493 140.797 1.06656C141.526 1.35563 142.163 1.76771 142.701 2.2905C143.24 2.81944 143.675 3.41603 144.006 4.09258C144.33 4.76912 144.495 5.49488 144.495 6.26368ZM141.55 6.28828C141.55 5.44567 141.25 4.72607 140.65 4.13563C140.05 3.54519 139.322 3.24997 138.464 3.24997C137.607 3.24997 136.872 3.54519 136.278 4.13563C135.678 4.72607 135.385 5.44567 135.385 6.28828C135.385 7.13089 135.685 7.85049 136.278 8.44093C136.879 9.03137 137.607 9.3266 138.464 9.3266C139.322 9.3266 140.05 9.03137 140.65 8.44093C141.25 7.85049 141.55 7.13089 141.55 6.28828ZM149.149 10.6243H145.585V8.05961H149.149V0.931254H152.235V19.0689H149.149V10.6182V10.6243Z" fill="#575756"/>
<path d="M172.697 23.5527H156.294V20.8219H162.882V17.6975C162.582 17.6237 162.301 17.5253 162.044 17.4146C161.297 17.1132 160.641 16.7073 160.078 16.2029C159.515 15.6801 159.08 15.0712 158.762 14.3885C158.443 13.6997 158.284 12.9739 158.284 12.2051C158.284 11.4363 158.443 10.7106 158.762 10.034C159.08 9.35749 159.521 8.7609 160.078 8.23196C160.641 7.70917 161.29 7.29709 162.025 7.00802C162.766 6.71895 163.556 6.57134 164.395 6.57134C165.234 6.57134 166.023 6.71895 166.752 7.00802C167.481 7.29709 168.117 7.70917 168.656 8.23196C169.22 8.7609 169.66 9.35749 169.985 10.034C170.316 10.7106 170.475 11.4363 170.475 12.2051C170.475 12.9739 170.309 13.6997 169.985 14.3885C169.66 15.0712 169.213 15.6801 168.656 16.2029C168.117 16.7073 167.481 17.1132 166.752 17.4146C166.452 17.5437 166.146 17.6483 165.828 17.7221V20.8219H172.697V23.5527ZM162.662 3.44692V0.771484H166.03V3.44692H172.116V6.12236H156.582V3.44692H162.668H162.662ZM167.456 12.1744C167.456 11.3502 167.156 10.6368 166.556 10.0463C165.956 9.4559 165.227 9.16068 164.37 9.16068C163.513 9.16068 162.778 9.4559 162.184 10.0463C161.584 10.6368 161.29 11.3502 161.29 12.1744C161.29 12.9985 161.591 13.712 162.184 14.3147C162.784 14.9175 163.513 15.2127 164.37 15.2127C165.227 15.2127 165.956 14.9113 166.556 14.3147C167.156 13.712 167.456 12.9985 167.456 12.1744ZM174.914 0.937546H178V26.0621H174.914V0.937546Z" fill="#575756"/>
</svg>
