<svg width="433" height="292" viewBox="0 0 433 292" fill="none" xmlns="http://www.w3.org/2000/svg">
<path d="M0.325623 0.237305H432.355V11.1288H0.325623V0.237305Z" fill="#246BEB"/>
<path d="M232.678 18.39H432.355V29.2815H232.678V18.39Z" fill="#246BEB"/>
<path d="M317.39 35.3323H432.355V46.2238H317.39V35.3323Z" fill="#99B0CB"/>
<path d="M352.484 53.4847H432.355V64.3763H352.484V53.4847Z" fill="#99B0CB"/>
<path d="M363.376 70.427H432.355V81.3185H363.376V70.427Z" fill="#99B0CB"/>
<path d="M370.637 88.5796H432.355V99.4711H370.637V88.5796Z" fill="#99B0CB"/>
<path d="M373.057 105.522H432.355V116.413H373.057V105.522Z" fill="#99B0CB"/>
<path d="M379.108 123.674H432.355V134.566H379.108V123.674Z" fill="#99B0CB"/>
<path d="M382.739 140.617H432.355V151.508H382.739V140.617Z" fill="#99B0CB"/>
<path d="M385.159 157.559H432.355V168.451H385.159V157.559Z" fill="#99B0CB"/>
<path d="M390 175.712H432.355V186.603H390V175.712Z" fill="#99B0CB"/>
<path d="M396.05 192.654H432.355V203.546H396.05V192.654Z" fill="#99B0CB"/>
<path d="M398.471 210.807H432.355V221.698H398.471V210.807Z" fill="#99B0CB"/>
<path d="M399.681 227.749H432.355V238.641H399.681V227.749Z" fill="#99B0CB"/>
<path d="M404.522 245.901H432.355V256.793H404.522V245.901Z" fill="#99B0CB"/>
<path d="M420.254 262.844H432.355V273.735H420.254V262.844Z" fill="#99B0CB"/>
<path d="M426.305 280.996H432.355V291.888H426.305V280.996Z" fill="#99B0CB"/>
</svg>
