<svg width="63" height="61" viewBox="0 0 63 61" fill="none" xmlns="http://www.w3.org/2000/svg">
<path d="M46.883 29.11C41.6112 25.5058 34.8515 26.9758 31.3063 32.3943C28.3429 36.9211 23.8731 37.4807 22.1404 37.4807C16.5012 37.4807 12.6376 33.4953 11.4927 29.3683C11.4804 29.3253 11.4743 29.2945 11.462 29.2515C11.4498 29.2023 11.4376 29.1592 11.4253 29.11C10.9783 27.3879 10.8681 26.5699 10.8681 24.737C10.8681 14.8717 20.9464 3.88707 35.4577 3.88707C49.9689 3.88707 58.8226 15.2531 61.0146 21.5696C60.9779 21.4589 60.9411 21.3482 60.9044 21.2374C56.6857 8.88122 45.0216 0 31.2941 0C14.0153 0 0 14.0722 0 31.4349C0 46.9524 11.1437 60.2373 26.5978 60.2373C38.9232 60.2373 47.2136 53.2935 51.0098 43.7296C53.0977 38.4956 51.616 32.3451 46.883 29.1162V29.11Z" fill="#003863"/>
<path d="M61.2106 22.1846C59.3859 16.0218 50.8139 3.89319 35.4577 3.89319C20.9403 3.89319 10.8682 14.8779 10.8682 24.7432C10.8682 26.5698 10.9784 27.394 11.4253 29.1161C11.2355 28.3658 11.1376 27.6093 11.1376 26.8712C11.1376 16.6 21.3812 9.47778 31.9064 9.47778C46.1605 9.47778 57.7083 21.0837 57.7083 35.3957C57.7083 46.6203 51.2792 56.3318 41.9357 60.9938C53.9733 56.6209 62.576 45.0396 62.576 31.4348C62.576 28.2182 62.1474 25.3767 61.1983 22.1846H61.2106Z" fill="#E4032E"/>
</svg>
