<svg width="4046" height="229" viewBox="0 0 4046 229" fill="none" xmlns="http://www.w3.org/2000/svg">
<path d="M2247.53 227.985H1798.07V228.912H2247.53V227.985Z" fill="#CCCCCC"/>
<path d="M2247.53 114H1798.07V114.927H2247.53V114Z" fill="#CCCCCC"/>
<path d="M2247.53 0.0146484H1798.07V0.941359H2247.53V0.0146484Z" fill="#CCCCCC"/>
<path d="M2247.53 200.184H1798.07V199.257H2247.53V200.184Z" fill="#EBEBEB"/>
<path d="M2247.53 171.456H1798.07V172.383H2247.53V171.456Z" fill="#EBEBEB"/>
<path d="M4045.35 142.728H0.255676V141.801H4045.35V142.728Z" fill="#EBEBEB"/>
<path d="M2247.53 85.272H1798.07V86.1987H2247.53V85.272Z" fill="#EBEBEB"/>
<path d="M2247.53 57.4707H1798.07V58.3974H2247.53V57.4707Z" fill="#EBEBEB"/>
<path d="M1842.56 142.728H1815.68V227.985H1842.56V142.728Z" fill="#3366CC"/>
<path d="M1932.45 25.9624H1905.57V227.985H1932.45V25.9624Z" fill="#3366CC"/>
<path d="M2022.34 30.5962H1995.46V227.985H2022.34V30.5962Z" fill="#3366CC"/>
<path d="M2112.23 103.806H2084.43V227.985H2112.23V103.806Z" fill="#3366CC"/>
<path d="M2202.12 167.749H2174.32V227.985H2202.12V167.749Z" fill="#3366CC"/>
<path d="M1871.28 156.628H1843.48V227.985H1871.28V156.628Z" fill="#A7C4F7"/>
<path d="M1961.17 59.3237H1933.37V227.985H1961.17V59.3237Z" fill="#A7C4F7"/>
<path d="M2050.14 26.8892H2023.26V227.985H2050.14V26.8892Z" fill="#A7C4F7"/>
<path d="M2140.03 88.9785H2113.15V227.985H2140.03V88.9785Z" fill="#A7C4F7"/>
<path d="M2229.92 172.383H2203.05V227.985H2229.92V172.383Z" fill="#A7C4F7"/>
<path d="M2247.53 227.985H1798.07V228.912H2247.53V227.985Z" fill="#333333"/>
</svg>
