<svg width="899" height="229" viewBox="0 0 899 229" fill="none" xmlns="http://www.w3.org/2000/svg">
<path d="M449.927 28.7432H0.472412L449.463 29.6699H898.918L449.927 28.7432Z" fill="#EBEBEB"/>
<path d="M449.927 227.986H0.472412V228.913H449.927V227.986Z" fill="#CCCCCC"/>
<path d="M449.927 171.457H0.472412V172.383H449.927V171.457Z" fill="#CCCCCC"/>
<path d="M449.927 114H0.472412V114.927H449.927V114Z" fill="#CCCCCC"/>
<path d="M449.927 57.4712H0.472412V58.3979H449.927V57.4712Z" fill="#CCCCCC"/>
<path d="M449.927 0.0151367H0.472412V0.941847H449.927V0.0151367Z" fill="#CCCCCC"/>
<path d="M449.927 199.258H0.472412V200.185H449.927V199.258Z" fill="#EBEBEB"/>
<path d="M449.927 142.729H0.472412V143.655H449.927V142.729Z" fill="#EBEBEB"/>
<path d="M449.927 85.2725H0.472412V86.1992H449.927V85.2725Z" fill="#EBEBEB"/>
<path d="M44.9544 153.849H18.0798V227.986H44.9544V153.849Z" fill="#3366CC"/>
<path d="M134.845 50.9844H107.971V227.986H134.845V50.9844Z" fill="#3366CC"/>
<path d="M224.736 54.6909H197.862V227.986H224.736V54.6909Z" fill="#3366CC"/>
<path d="M314.627 119.561H286.826V227.986H314.627V119.561Z" fill="#3366CC"/>
<path d="M404.518 175.164H376.717V227.986H404.518V175.164Z" fill="#3366CC"/>
<path d="M73.6824 165.896H45.8811V227.986H73.6824V165.896Z" fill="#A7C4F7"/>
<path d="M163.573 80.6392H135.772V227.986H163.573V80.6392Z" fill="#A7C4F7"/>
<path d="M252.537 51.9111H225.663V227.986H252.537V51.9111Z" fill="#A7C4F7"/>
<path d="M342.428 106.587H315.554V227.986H342.428V106.587Z" fill="#A7C4F7"/>
<path d="M432.319 178.87H405.445V227.986H432.319V178.87Z" fill="#A7C4F7"/>
<path d="M449.927 227.986H0.472412V228.913H449.927V227.986Z" fill="#333333"/>
</svg>
