<svg width="178" height="27" viewBox="0 0 178 27" fill="none" xmlns="http://www.w3.org/2000/svg">
<path d="M22.0867 17.3589V26.1171H18.9762V20.0896H2.51791V17.3589H10.9002V13.6686H0.944336V10.9378H23.9358V13.6686H13.98V17.3589H22.0806H22.0867ZM22.0867 1.44153V8.93276H18.9762V4.20307H2.79957V1.44153H22.0867Z" fill="#575756"/>
<path d="M28.0565 14.5665V1.66903H40.9268V14.5665H28.0565ZM28.7851 25.5512V17.1558H31.8711V22.7896H49.2846V25.5512H28.7913H28.7851ZM37.8715 4.37523H31.1425V11.8972H37.8715V4.37523ZM45.9415 17.0205V0.937134H49.0519V17.0205H45.9415Z" fill="#575756"/>
<path d="M62.9325 15.0216V18.5397H59.8465V15.0216H53.0317V12.4323H69.7166V15.0216H62.9325ZM63.8325 11.1346V4.37523H54.5808V1.61368H66.9429V11.1346H63.8325ZM57.7219 17.2173V22.8511H75.5823V25.5573H54.6114V17.2235H57.7219V17.2173ZM71.8229 10.2304H68.1798V7.66571H71.8229V0.937134H74.9088V18.8226H71.8229V10.2304Z" fill="#575756"/>
<path d="M92.2733 7.6411C92.2733 8.50832 92.0958 9.31402 91.7406 10.0767C91.3855 10.8393 90.9079 11.4913 90.314 12.0325C89.714 12.6168 89.0221 13.0719 88.2261 13.4102C87.4301 13.7485 86.5791 13.9145 85.6606 13.9145C84.7422 13.9145 83.8911 13.7485 83.0951 13.4102C82.2992 13.0719 81.6073 12.6107 81.0072 12.0325C80.4072 11.4913 79.9357 10.8332 79.5928 10.0767C79.2438 9.31402 79.0724 8.50217 79.0724 7.6411C79.0724 6.78004 79.2438 5.93744 79.5928 5.17478C79.9357 4.41213 80.4072 3.75403 81.0072 3.18819C81.6073 2.6039 82.2992 2.14877 83.0951 1.81049C83.8911 1.47222 84.7422 1.30616 85.6606 1.30616C86.5791 1.30616 87.4301 1.47222 88.2261 1.81049C89.0221 2.14877 89.714 2.61005 90.314 3.18819C90.9141 3.74788 91.3855 4.41213 91.7406 5.17478C92.0958 5.93744 92.2733 6.75544 92.2733 7.6411ZM80.7194 15.9503H100.711V25.8341H97.6003V18.7365H80.7194V15.9503ZM89.2486 7.6411C89.2486 6.64473 88.8996 5.79598 88.1955 5.09483C87.4975 4.39368 86.6587 4.03695 85.6851 4.03695C84.7116 4.03695 83.8727 4.38753 83.1625 5.09483C82.4522 5.79598 82.0971 6.65089 82.0971 7.6411C82.0971 8.63132 82.4522 9.45548 83.1625 10.1628C83.8727 10.8639 84.7116 11.2207 85.6851 11.2207C86.6587 11.2207 87.4914 10.8701 88.1955 10.1628C88.8996 9.46163 89.2486 8.61902 89.2486 7.6411ZM97.6003 0.937134H100.711V14.3143H97.6003V0.937134Z" fill="#575756"/>
<path d="M104.293 18.4536V15.692H121.033V18.4536H114.022V25.2436H110.967V18.4536H104.293ZM119.128 7.75181C119.128 8.61902 118.957 9.43088 118.608 10.1997C118.265 10.9685 117.781 11.6327 117.163 12.1986C116.544 12.7829 115.834 13.238 115.032 13.5763C114.23 13.9145 113.367 14.0806 112.454 14.0806C111.542 14.0806 110.679 13.9145 109.877 13.5763C109.075 13.238 108.364 12.7767 107.746 12.1986C107.128 11.6327 106.644 10.9685 106.289 10.1997C105.934 9.43088 105.756 8.61287 105.756 7.75181C105.756 6.89075 105.934 6.07274 106.289 5.30394C106.644 4.53514 107.128 3.85859 107.746 3.2743C108.364 2.69001 109.075 2.23487 109.877 1.8966C110.679 1.55833 111.542 1.39227 112.454 1.39227C113.367 1.39227 114.23 1.55833 115.032 1.8966C115.834 2.23487 116.544 2.69616 117.163 3.2743C117.781 3.85859 118.259 4.53514 118.608 5.30394C118.951 6.07274 119.128 6.89075 119.128 7.75181ZM116.153 7.75181C116.153 6.73699 115.791 5.87593 115.057 5.16248C114.328 4.44903 113.459 4.0923 112.448 4.0923C111.438 4.0923 110.575 4.44903 109.852 5.16248C109.136 5.87593 108.775 6.73699 108.775 7.75181C108.775 8.76663 109.136 9.60925 109.852 10.3288C110.575 11.0484 111.438 11.4113 112.448 11.4113C113.459 11.4113 114.328 11.0484 115.057 10.3288C115.785 9.60925 116.153 8.74818 116.153 7.75181ZM122.912 0.937134H125.998V26.0617H122.912V0.937134Z" fill="#575756"/>
<path d="M140.265 15.4153V18.7919H137.179V15.4153H130.364V12.8259H147.049V15.4153H140.265ZM135.048 17.611V22.8512H152.908V25.5573H131.937V17.6171H135.048V17.611ZM144.496 6.26344C144.496 7.03224 144.33 7.75799 144.006 8.44684C143.675 9.12954 143.24 9.73843 142.702 10.2612C142.163 10.7656 141.526 11.1715 140.797 11.4729C140.069 11.7742 139.291 11.9218 138.471 11.9218C137.65 11.9218 136.873 11.7742 136.144 11.4729C135.415 11.1715 134.772 10.7656 134.209 10.2612C133.689 9.73843 133.26 9.12954 132.935 8.44684C132.605 7.75799 132.446 7.03224 132.446 6.26344C132.446 5.49463 132.611 4.76888 132.935 4.09233C133.26 3.41578 133.689 2.81919 134.209 2.29026C134.772 1.76747 135.415 1.35539 136.144 1.06632C136.873 0.777249 137.65 0.629639 138.471 0.629639C139.291 0.629639 140.069 0.777249 140.797 1.06632C141.526 1.35539 142.163 1.76747 142.702 2.29026C143.24 2.81919 143.675 3.41578 144.006 4.09233C144.33 4.76888 144.496 5.49463 144.496 6.26344ZM141.55 6.28804C141.55 5.44543 141.25 4.72583 140.65 4.13539C140.05 3.54494 139.322 3.24972 138.464 3.24972C137.607 3.24972 136.873 3.54494 136.279 4.13539C135.679 4.72583 135.385 5.44543 135.385 6.28804C135.385 7.13065 135.685 7.85025 136.279 8.44069C136.879 9.03113 137.607 9.32635 138.464 9.32635C139.322 9.32635 140.05 9.03113 140.65 8.44069C141.25 7.85025 141.55 7.13065 141.55 6.28804ZM149.149 10.6241H145.585V8.05936H149.149V0.93101H152.235V19.0686H149.149V10.6179V10.6241Z" fill="#575756"/>
<path d="M172.698 23.5523H156.294V20.8215H162.883V17.6971C162.583 17.6233 162.301 17.5249 162.044 17.4142C161.297 17.1128 160.642 16.7069 160.078 16.2026C159.515 15.6798 159.08 15.0709 158.762 14.3882C158.443 13.6993 158.284 12.9736 158.284 12.2048C158.284 11.436 158.443 10.7102 158.762 10.0337C159.08 9.35712 159.521 8.76053 160.078 8.23159C160.642 7.70881 161.291 7.29673 162.025 7.00766C162.766 6.71859 163.556 6.57098 164.395 6.57098C165.234 6.57098 166.024 6.71859 166.752 7.00766C167.481 7.29673 168.118 7.70881 168.656 8.23159C169.22 8.76053 169.661 9.35712 169.985 10.0337C170.316 10.7102 170.475 11.436 170.475 12.2048C170.475 12.9736 170.31 13.6993 169.985 14.3882C169.661 15.0709 169.214 15.6798 168.656 16.2026C168.118 16.7069 167.481 17.1128 166.752 17.4142C166.452 17.5434 166.146 17.6479 165.828 17.7217V20.8215H172.698V23.5523ZM162.662 3.44656V0.771118H166.03V3.44656H172.116V6.122H156.582V3.44656H162.668H162.662ZM167.456 12.174C167.456 11.3499 167.156 10.6364 166.556 10.046C165.956 9.45553 165.228 9.16031 164.37 9.16031C163.513 9.16031 162.778 9.45553 162.185 10.046C161.585 10.6364 161.291 11.3499 161.291 12.174C161.291 12.9982 161.591 13.7116 162.185 14.3144C162.785 14.9171 163.513 15.2123 164.37 15.2123C165.228 15.2123 165.956 14.911 166.556 14.3144C167.156 13.7116 167.456 12.9982 167.456 12.174ZM174.914 0.93718H178V26.0617H174.914V0.93718Z" fill="#575756"/>
</svg>
