<svg width="452" height="300" viewBox="0 0 452 300" fill="none" xmlns="http://www.w3.org/2000/svg">
<path d="M1.80587 0.607178H0.595703V299.519H1.80587V0.607178Z" fill="#CCCCCC"/>
<path d="M114.352 0.607178H113.141V299.519H114.352V0.607178Z" fill="#CCCCCC"/>
<path d="M226.897 0.607178H225.687V299.519H226.897V0.607178Z" fill="#CCCCCC"/>
<path d="M339.443 0.607178H338.232V299.519H339.443V0.607178Z" fill="#CCCCCC"/>
<path d="M451.988 0.607178H450.778V299.519H451.988V0.607178Z" fill="#CCCCCC"/>
<path d="M58.6836 0.607178H57.4734V299.519H58.6836V0.607178Z" fill="#EBEBEB"/>
<path d="M171.229 0.607178H170.019V299.519H171.229V0.607178Z" fill="#EBEBEB"/>
<path d="M283.775 0.607178H282.565V299.519H283.775V0.607178Z" fill="#EBEBEB"/>
<path d="M396.321 0.607178H395.11V299.519H396.321V0.607178Z" fill="#EBEBEB"/>
<path d="M318.87 4.23779H1.80566V15.1293H318.87V4.23779Z" fill="#99B0CB"/>
<path d="M214.795 22.3903H1.80566V33.2818H214.795V22.3903Z" fill="#99B0CB"/>
<path d="M389.059 39.3325H1.80566V50.224H389.059V39.3325Z" fill="#246BEB"/>
<path d="M246.26 57.4851H1.80566V68.3766H246.26V57.4851Z" fill="#99B0CB"/>
<path d="M295.876 74.4275H1.80566V85.319H295.876V74.4275Z" fill="#99B0CB"/>
<path d="M194.222 92.5798H1.80566V103.471H194.222V92.5798Z" fill="#99B0CB"/>
<path d="M424.154 109.522H1.80566V120.414H424.154V109.522Z" fill="#246BEB"/>
<path d="M384.219 127.675H1.80566V138.566H384.219V127.675Z" fill="#99B0CB"/>
<path d="M238.999 144.617H1.80566V155.509H238.999V144.617Z" fill="#99B0CB"/>
<path d="M189.382 161.559H1.80566V172.451H189.382V161.559Z" fill="#99B0CB"/>
<path d="M274.093 179.712H1.80566V190.603H274.093V179.712Z" fill="#99B0CB"/>
<path d="M344.283 196.654H1.80566V207.546H344.283V196.654Z" fill="#99B0CB"/>
<path d="M196.643 214.807H1.80566V225.698H196.643V214.807Z" fill="#99B0CB"/>
<path d="M195.432 231.749H1.80566V242.641H195.432V231.749Z" fill="#99B0CB"/>
<path d="M194.222 249.902H1.80566V260.793H194.222V249.902Z" fill="#99B0CB"/>
<path d="M194.222 266.844H1.80566V277.736H194.222V266.844Z" fill="#99B0CB"/>
<path d="M199.063 284.997H1.80566V295.888H199.063V284.997Z" fill="#99B0CB"/>
<path d="M1.80587 0.607178H0.595703V299.519H1.80587V0.607178Z" fill="#333333"/>
</svg>
