<svg width="68" height="68" viewBox="0 0 68 68" fill="none" xmlns="http://www.w3.org/2000/svg">
<path d="M11.9931 55.3L1.9931 49.8C1.25977 49.4 0.843103 48.8167 0.743103 48.05C0.643103 47.2833 0.85977 46.6333 1.3931 46.1L2.5931 44.9C2.85977 44.6333 3.17644 44.45 3.5431 44.35C3.90977 44.25 4.25977 44.2333 4.5931 44.3L13.3931 45.5L28.9931 29.9L1.7931 15.1C0.793103 14.5667 0.20977 13.7333 0.0431034 12.6C-0.123563 11.4667 0.193103 10.5 0.993103 9.7L1.9931 8.7C2.45977 8.23333 2.97644 7.93333 3.5431 7.8C4.10977 7.66667 4.6931 7.66667 5.2931 7.8L41.5931 17.1L57.1931 1.7C58.3264 0.566667 59.7264 0 61.3931 0C63.0598 0 64.4598 0.566667 65.5931 1.7C66.7264 2.83333 67.2931 4.23333 67.2931 5.9C67.2931 7.56667 66.7264 8.96667 65.5931 10.1L50.1931 25.7L59.4931 61.8C59.6264 62.4667 59.6098 63.1167 59.4431 63.75C59.2764 64.3833 58.9598 64.9333 58.4931 65.4L57.9931 65.9C57.0598 66.8333 55.9764 67.2 54.7431 67C53.5098 66.8 52.5931 66.1333 51.9931 65L37.3931 38.3L21.7931 53.9L22.9931 62.5C23.0598 62.9667 23.0264 63.4 22.8931 63.8C22.7598 64.2 22.5264 64.5667 22.1931 64.9L21.6931 65.4C21.0264 66.0667 20.2264 66.35 19.2931 66.25C18.3598 66.15 17.6598 65.6667 17.1931 64.8L11.9931 55.3Z" fill="black"/>
</svg>
