<svg width="535" height="162" viewBox="0 0 535 162" fill="none" xmlns="http://www.w3.org/2000/svg">
<path d="M0 162C0 162 32.4242 132.522 48.6364 106.361C64.8485 80.2007 81.0606 12.7257 97.2727 5.03581C113.485 -2.65408 129.697 50.1197 145.909 60.2221C162.121 70.3245 178.333 67.4068 194.545 65.6502C210.758 63.8936 226.97 59.1063 243.182 49.6824C259.394 40.2585 275.606 17.0004 291.818 9.10693C308.03 1.21348 324.242 -2.88026 340.455 2.32173C356.667 7.52371 372.879 28.407 389.091 40.3188C405.303 52.2306 421.515 63.6901 437.727 73.7925C453.939 83.8949 470.152 106.437 486.364 100.933C502.576 95.4297 535 40.7712 535 40.7712" stroke="#108C1E" stroke-width="2"/>
</svg>
